<?xml version="1.0" standalone="no"?>
<!DOCTYPE svg PUBLIC "-//W3C//DTD SVG 20010904//EN"
 "http://www.w3.org/TR/2001/REC-SVG-20010904/DTD/svg10.dtd">
<svg version="1.0" xmlns="http://www.w3.org/2000/svg"
 width="600.000000pt" height="600.000000pt" viewBox="0 0 600.000000 600.000000"
 preserveAspectRatio="xMidYMid meet">
<metadata>
Created by potrace 1.14, written by Peter Selinger 2001-2017
</metadata>
<g transform="translate(0.000000,600.000000) scale(0.100000,-0.100000)"
fill="#000000" stroke="none">
<path d="M2535 5982 c-3 -8 -3 -17 0 -20 3 -3 5 -1 5 5 0 6 6 13 13 16 8 3 14
-1 14 -9 0 -8 -4 -14 -8 -14 -5 0 -6 -7 -3 -15 4 -8 10 -15 16 -15 5 0 6 5 3
10 -3 6 -1 10 5 10 20 0 5 -24 -23 -38 -15 -7 -27 -18 -26 -25 0 -9 2 -9 6 1
2 6 11 12 19 12 9 0 13 -4 9 -9 -3 -5 0 -13 6 -17 8 -5 9 -3 4 6 -5 8 -4 11 3
6 6 -4 8 -14 5 -22 -5 -13 -1 -15 18 -9 23 7 23 7 -3 -14 -33 -26 -36 -41 -9
-36 17 3 19 0 11 -21 -5 -13 -7 -30 -4 -38 3 -7 -2 -21 -11 -30 -13 -12 -13
-16 -3 -16 8 0 20 6 28 13 8 6 7 3 -2 -8 -13 -17 -14 -22 -3 -32 11 -10 15
-10 19 0 2 7 2 -3 -1 -22 -4 -22 -1 -36 8 -42 11 -7 10 -9 -4 -9 -14 0 -16 -5
-11 -27 4 -16 7 -30 6 -33 0 -25 -4 -30 -14 -24 -9 5 -9 2 1 -9 11 -14 11 -20
0 -34 -12 -14 -12 -16 0 -8 11 6 13 2 9 -19 -3 -14 -1 -26 3 -26 5 0 9 7 9 16
0 13 2 13 17 -2 12 -12 14 -19 6 -21 -7 -3 -9 -11 -6 -19 3 -9 0 -13 -8 -11
-8 2 -11 2 -6 0 4 -3 4 -9 1 -15 -4 -6 2 -5 15 1 17 10 20 9 15 -4 -4 -8 -11
-15 -17 -15 -11 0 0 -15 11 -15 12 0 32 -16 32 -24 0 -4 -7 -8 -15 -8 -8 0
-12 4 -9 9 3 4 1 8 -4 8 -6 0 -13 -7 -16 -16 -3 -8 -2 -13 2 -11 4 3 14 2 23
-2 13 -5 15 -11 6 -31 -13 -32 -16 -90 -5 -90 4 0 8 -7 8 -16 0 -9 -5 -12 -12
-8 -10 6 -10 4 -2 -7 6 -8 10 -22 9 -31 -2 -10 1 -18 5 -18 5 0 11 8 13 18 3
9 4 -2 2 -25 -1 -23 0 -44 4 -46 3 -2 0 -2 -8 0 -9 2 -11 -2 -7 -13 3 -8 6
-20 6 -25 0 -4 8 -6 18 -2 13 5 15 3 5 -7 -9 -10 -9 -19 -1 -34 9 -17 8 -19
-3 -8 -17 16 -37 16 -21 0 7 -7 12 -18 12 -24 0 -7 5 -25 12 -41 6 -15 10 -32
9 -37 -1 -5 4 -13 11 -17 10 -7 8 -9 -5 -9 -10 0 -15 -5 -12 -10 4 -6 11 -8
16 -5 9 6 14 -10 9 -30 -1 -5 -3 -18 -5 -28 -2 -9 -7 -22 -10 -27 -4 -6 -1 -9
7 -8 7 2 13 -4 13 -12 0 -8 5 -18 10 -22 6 -4 1 -8 -10 -9 -11 0 -14 -3 -7 -6
6 -2 9 -10 5 -16 -4 -6 0 -8 9 -5 8 4 15 1 15 -7 0 -7 -5 -11 -12 -9 -6 3 -11
-6 -11 -20 0 -14 4 -22 8 -20 13 8 9 -21 -4 -34 -9 -9 -8 -12 8 -12 17 0 19
-6 18 -42 0 -24 4 -51 9 -62 6 -13 6 -16 -2 -12 -6 4 -11 0 -11 -9 0 -10 5
-13 13 -9 7 5 6 0 -3 -11 -13 -17 -13 -18 0 -13 8 3 22 -2 30 -10 13 -14 12
-15 -2 -10 -11 5 -15 0 -15 -18 0 -15 5 -24 16 -24 14 0 14 -2 1 -10 -19 -12
-22 -50 -6 -70 7 -8 11 -25 10 -37 0 -13 3 -23 7 -23 5 0 7 -17 4 -37 -3 -28
-2 -33 4 -18 8 16 10 17 10 3 1 -9 -3 -19 -8 -23 -6 -3 -9 -14 -8 -25 1 -14 4
-16 14 -8 10 8 12 6 9 -13 -3 -13 -5 -26 -5 -29 -1 -3 -6 2 -11 10 -6 9 -10
10 -10 3 0 -6 5 -15 11 -18 6 -4 8 -13 5 -21 -3 -8 0 -13 6 -11 14 2 17 -30 5
-55 -4 -10 -4 -18 1 -18 5 0 9 -18 10 -39 1 -22 6 -51 12 -65 7 -19 6 -26 -3
-26 -9 0 -9 -2 0 -8 7 -4 11 -18 8 -30 -2 -12 0 -24 5 -27 4 -3 6 -14 3 -25
-4 -15 0 -20 13 -21 11 0 14 -3 7 -6 -14 -5 -18 -73 -5 -73 4 0 8 -12 8 -27 3
-60 13 -115 24 -128 8 -10 8 -15 0 -20 -6 -4 -9 -14 -5 -22 3 -9 10 -48 16
-87 6 -39 15 -98 20 -131 14 -86 16 -107 18 -138 l1 -28 289 4 c159 2 293 7
298 10 6 4 33 3 62 -2 28 -4 54 -5 56 -1 5 9 37 6 54 -5 9 -5 12 -4 7 3 -4 7
9 9 41 7 29 -2 51 2 55 8 6 9 8 9 8 0 0 -7 9 -13 21 -13 11 0 18 4 15 8 -3 5
1 9 9 9 8 0 15 -3 15 -7 0 -11 34 -8 42 3 4 7 13 6 24 -4 10 -8 15 -9 11 -3
-4 7 2 12 18 12 14 0 25 -4 25 -8 0 -4 11 -7 25 -6 18 1 24 5 20 16 -3 9 1 7
10 -4 15 -20 15 -20 15 0 1 17 2 17 13 4 10 -13 30 -18 40 -10 11 9 140 10
152 0 10 -8 15 -8 21 1 4 8 3 9 -4 5 -7 -4 -12 -2 -12 3 0 13 10 14 29 2 8 -5
24 -6 37 -1 15 6 24 5 28 -3 3 -9 7 -9 13 -1 13 18 53 27 53 12 0 -15 69 -16
92 -2 7 5 24 10 38 11 22 2 23 1 5 -6 -15 -6 -9 -8 23 -7 30 0 42 5 42 16 0
12 2 12 9 2 4 -7 14 -12 22 -10 8 2 13 -2 12 -9 -2 -7 4 -10 12 -6 11 3 12 9
6 17 -7 8 -4 12 9 13 11 1 19 -3 17 -9 -1 -6 4 -13 11 -15 8 -3 10 1 5 13 -6
16 -5 17 9 4 9 -8 13 -19 10 -24 -3 -5 0 -6 6 -2 6 4 8 14 5 24 -6 15 -5 15
10 4 11 -9 27 -11 48 -7 25 6 30 4 24 -6 -6 -11 -5 -12 6 -1 17 16 32 16 24 0
-4 -7 -1 -6 7 3 7 9 19 14 27 11 7 -2 17 2 22 9 7 11 9 10 9 -3 0 -10 -4 -18
-10 -18 -5 0 -10 -4 -10 -9 0 -10 39 -3 56 10 6 5 13 6 16 3 15 -14 58 -13 73
3 13 13 21 14 35 5 13 -8 21 -7 29 1 9 9 11 8 6 -5 -4 -10 -4 -18 -1 -18 4 0
10 10 15 22 4 12 17 22 28 23 12 1 19 -3 17 -10 -7 -16 22 -39 31 -25 3 6 10
8 15 5 5 -3 12 0 16 6 4 8 3 9 -4 5 -7 -4 -12 -3 -12 2 0 10 61 9 79 -2 6 -4
11 -1 11 7 0 10 8 13 25 9 21 -3 23 -7 14 -18 -10 -12 -9 -13 5 -8 9 3 16 11
16 18 0 6 14 10 32 10 19 -1 32 -7 31 -13 -2 -6 4 -11 12 -11 9 0 12 6 9 15
-4 10 0 15 11 15 12 0 15 -5 11 -16 -5 -14 -4 -15 9 -4 13 11 14 10 8 -6 -6
-16 -4 -17 9 -6 8 7 24 9 33 5 12 -4 16 -3 11 5 -3 6 -1 14 6 18 7 4 10 4 6
-1 -4 -4 4 -14 19 -22 25 -13 29 -12 43 6 11 16 19 18 30 10 13 -9 12 -10 -3
-5 -10 3 -16 2 -13 -3 3 -5 17 -8 31 -8 l25 -1 -21 19 c-21 18 -21 18 0 16 11
0 18 -3 16 -6 -3 -2 3 -10 13 -17 9 -7 19 -8 22 -4 8 13 59 20 66 9 3 -6 13
-8 21 -5 8 3 11 1 8 -4 -3 -6 1 -10 9 -10 14 0 20 11 17 32 0 4 11 5 25 2 16
-3 23 -1 19 6 -4 7 2 7 20 0 15 -6 28 -10 31 -10 2 0 4 653 4 1450 l0 1450
-1673 0 c-1325 0 -1676 -3 -1686 -12 -11 -11 -12 -10 -7 0 6 10 -4 13 -43 11
-33 -2 -52 -7 -56 -17z m122 -24 c-3 -8 -6 -5 -6 6 -1 11 2 17 5 13 3 -3 4
-12 1 -19z m6 -33 c-3 -9 -8 -14 -10 -11 -3 3 -2 9 2 15 9 16 15 13 8 -4z
m-63 -15 c-6 -11 -16 -17 -22 -14 -7 5 -5 12 7 21 25 18 28 17 15 -7z m70 -93
c11 -5 9 -6 -4 -4 -11 1 -21 9 -23 17 -3 10 -2 11 4 4 4 -6 15 -14 23 -17z
m14 -58 c3 1 5 -2 4 -6 -2 -4 -10 -8 -19 -8 -11 -1 -15 4 -11 18 3 12 7 15 12
7 4 -6 10 -11 14 -11z m11 -39 c-3 -5 -11 -10 -16 -10 -6 0 -7 5 -4 10 3 6 11
10 16 10 6 0 7 -4 4 -10z m25 -85 c0 -7 -30 -13 -34 -7 -3 4 4 9 15 9 10 1 19
0 19 -2z m-2 -71 c2 -16 -1 -23 -7 -19 -6 3 -10 17 -9 30 3 29 11 23 16 -11z
m-68 -5 c0 -5 -4 -9 -8 -9 -5 0 -9 7 -9 15 0 8 4 12 9 9 4 -3 8 -9 8 -15z m10
-43 c0 -8 -4 -17 -9 -21 -12 -7 -24 12 -16 25 9 15 25 12 25 -4z m54 -28 c-3
-4 0 -8 7 -8 7 0 9 -3 6 -6 -4 -4 -13 -2 -21 5 -11 9 -15 9 -18 -1 -3 -8 -6
-8 -10 3 -4 11 1 15 17 15 13 0 21 -4 19 -8z m-64 -18 c0 -5 -7 -7 -15 -4 -8
4 -15 8 -15 10 0 2 7 4 15 4 8 0 15 -4 15 -10z m60 -26 c0 -8 -5 -12 -10 -9
-6 4 -8 11 -5 16 9 14 15 11 15 -7z m20 -28 c0 -3 -4 -8 -10 -11 -5 -3 -10 -1
-10 4 0 6 5 11 10 11 6 0 10 -2 10 -4z m6 -102 c-3 -21 -21 -17 -21 5 0 10 -7
26 -15 37 -10 13 -6 11 12 -4 14 -13 25 -30 24 -38z m18 -80 c9 -3 16 -10 16
-16 0 -5 -4 -6 -10 -3 -5 3 -10 1 -10 -5 0 -6 -5 -8 -12 -4 -9 6 -9 9 1 12 11
4 11 6 0 13 -16 10 -8 12 15 3z m-47 -100 c-3 -3 -12 -4 -19 -1 -8 3 -5 6 6 6
11 1 17 -2 13 -5z m53 -34 c0 -5 -5 -10 -11 -10 -5 0 -7 5 -4 10 3 6 8 10 11
10 2 0 4 -4 4 -10z m16 -57 c-3 -4 -6 -1 -6 6 0 7 -4 9 -10 6 -11 -7 -14 8 -3
19 4 3 11 -1 16 -9 5 -9 6 -19 3 -22z m4 -127 c0 -3 -4 -8 -10 -11 -5 -3 -10
-1 -10 4 0 6 5 11 10 11 6 0 10 -2 10 -4z m-40 -36 c0 -5 -5 -10 -11 -10 -5 0
-7 5 -4 10 3 6 8 10 11 10 2 0 4 -4 4 -10z m47 -42 c-3 -8 -6 -5 -6 6 -1 11 2
17 5 13 3 -3 4 -12 1 -19z m0 -53 c0 -8 -4 -12 -9 -9 -5 3 -6 10 -3 15 9 13
12 11 12 -6z m33 -260 c-7 -9 -15 -13 -17 -11 -6 6 20 36 26 30 2 -2 -2 -10
-9 -19z m-28 -67 c-7 -7 -12 -8 -12 -2 0 6 3 14 7 17 3 4 9 5 12 2 2 -3 -1
-11 -7 -17z m45 -50 c-3 -8 -6 -5 -6 6 -1 11 2 17 5 13 3 -3 4 -12 1 -19z m4
-161 c-10 -9 -11 -8 -5 6 3 10 9 15 12 12 3 -3 0 -11 -7 -18z m25 -88 c3 -6 1
-16 -5 -22 -9 -9 -10 -7 -5 7 5 13 4 17 -4 12 -7 -4 -12 -2 -12 3 0 14 17 14
26 0z m24 -264 c0 -5 -5 -3 -10 5 -5 8 -10 20 -10 25 0 6 5 3 10 -5 5 -8 10
-19 10 -25z m7 -97 c-3 -8 -6 -5 -6 6 -1 11 2 17 5 13 3 -3 4 -12 1 -19z
m2201 -718 c-7 -11 -21 -18 -32 -16 -30 4 -31 25 -1 22 14 -2 28 1 31 5 3 5 7
9 10 9 2 0 -1 -9 -8 -20z m562 5 c0 -8 -2 -15 -4 -15 -2 0 -6 7 -10 15 -3 8
-1 15 4 15 6 0 10 -7 10 -15z m-390 -9 c0 -3 -4 -8 -10 -11 -5 -3 -10 -1 -10
4 0 6 5 11 10 11 6 0 10 -2 10 -4z"/>
<path d="M2550 5861 c0 -6 5 -11 11 -11 5 0 7 -4 4 -10 -3 -5 -1 -10 4 -10 16
0 13 16 -4 30 -10 9 -15 9 -15 1z"/>
<path d="M2580 5800 c-8 -26 -7 -41 2 -32 6 6 8 16 5 24 -3 7 -6 11 -7 8z"/>
<path d="M2585 5660 c-3 -5 -1 -10 4 -10 6 0 11 5 11 10 0 6 -2 10 -4 10 -3 0
-8 -4 -11 -10z"/>
<path d="M2590 5610 c-13 -8 -12 -10 3 -10 9 0 17 5 17 10 0 12 -1 12 -20 0z"/>
<path d="M2596 5563 c9 -38 14 -42 14 -10 0 14 -5 29 -10 32 -7 4 -8 -3 -4
-22z"/>
<path d="M2648 5263 c7 -3 16 -2 19 1 4 3 -2 6 -13 5 -11 0 -14 -3 -6 -6z"/>
<path d="M2641 5214 c0 -11 3 -14 6 -6 3 7 2 16 -1 19 -3 4 -6 -2 -5 -13z"/>
<path d="M2675 5071 c-3 -5 -2 -12 3 -15 5 -3 9 1 9 9 0 17 -3 19 -12 6z"/>
<path d="M5956 3086 c6 -15 28 -16 41 -1 4 4 2 5 -4 1 -7 -4 -13 -2 -13 3 0 6
-7 11 -15 11 -8 0 -12 -6 -9 -14z"/>
<path d="M5200 3081 c0 -6 4 -13 10 -16 6 -3 7 1 4 9 -7 18 -14 21 -14 7z"/>
<path d="M5475 3079 c-4 -6 -14 -8 -22 -5 -8 3 -11 1 -8 -4 9 -15 32 -12 39 5
6 17 0 20 -9 4z"/>
<path d="M5832 3070 c0 -14 2 -19 5 -12 2 6 2 18 0 25 -3 6 -5 1 -5 -13z"/>
</g>
</svg>
